{"title":"My Little Pony Equestria Girls Esp Latino","uid":11870704,"size":2413169430,"categoryP":"video","categoryS":"movies","magnet":"?xt=urn:btih:aa30d42c59bdb8522665ea251934143772e0a801&amp;dn=My+Little+Pony+Equestria+Girls+Esp+Latino&amp;tr=udp%3A%2F%2Ftracker.openbittorrent.com%3A80&amp;tr=udp%3A%2F%2Fopen.demonii.com%3A1337&amp;tr=udp%3A%2F%2Ftracker.coppersurfer.tk%3A6969&amp;tr=udp%3A%2F%2Fexodus.desync.com%3A6969","seeders":1,"leechers":2,"uploader":"alex.bvx","files":5,"time":1430408561,"description":"General\nFormat                         : AVI\nFormat/Info                    : Audio Video Interleave\nFormat profile                 : OpenDML\nFile size                      : 2.25 GiB\nDuration                       : 1h 13mn\nOverall bit rate               : 4 382 Kbps\nWriting application            : MEncoder SVN-r33883(20110719-gcc4.5.2)\nWriting library                : MPlayer\n\nVideo\nID                             : 0\nFormat                         : MPEG-4 Visual\nFormat profile                 : Advanced Simple@L5\nFormat settings, BVOP          : 2\nFormat settings, QPel          : No\nFormat settings, GMC           : No warppoints\nFormat settings, Matrix        : Default (H.263)\nCodec ID                       : XVID\nCodec ID/Hint                  : XviD\nDuration                       : 1h 13mn\nBit rate                       : 4 177 Kbps\nWidth                          : 1 280 pixels\nHeight                         : 720 pixels\nDisplay aspect ratio           : 16:9\nFrame rate                     : 30.000 fps\nColor space                    : YUV\nChroma subsampling             : 4:2:0\nBit depth                      : 8 bits\nScan type                      : Progressive\nCompression mode               : Lossy\nBits/(Pixel*Frame)             : 0.151\nStream size                    : 2.14 GiB (95%)\nWriting library                : XviD 1.2.1 (UTC 2008-12-04)\n\nAudio\nID                             : 1\nFormat                         : MPEG Audio\nFormat version                 : Version 1\nFormat profile                 : Layer 3\nMode                           : Joint stereo\nMode extension                 : MS Stereo\nCodec ID                       : 55\nCodec ID/Hint                  : MP3\nDuration                       : 1h 13mn\nBit rate mode                  : Constant\nBit rate                       : 192 Kbps\nChannel(s)                     : 2 channels\nSampling rate                  : 44.1 KHz\nCompression mode               : Lossy\nDelay relative to video        : 33ms\nStream size                    : 101 MiB (4%)\nAlignment                      : Aligned on interleaves\nInterleave, duration           : 26 ms (0.78 video frame)\nInterleave, preload duration   : 522 ms\nWriting library                : LAME3.98.4","torrent":{"xt":"urn:btih:aa30d42c59bdb8522665ea251934143772e0a801","amp;dn":"My+Little+Pony+Equestria+Girls+Esp+Latino","amp;tr":["udp%3A%2F%2Ftracker.openbittorrent.com%3A80","udp%3A%2F%2Fopen.demonii.com%3A1337","udp%3A%2F%2Ftracker.coppersurfer.tk%3A6969","udp%3A%2F%2Fexodus.desync.com%3A6969"],"infoHash":"aa30d42c59bdb8522665ea251934143772e0a801","infoHashBuffer":{"type":"Buffer","data":[170,48,212,44,89,189,184,82,38,101,234,37,25,52,20,55,114,224,168,1]},"announce":[],"urlList":[]}}